<svg xmlns="http://www.w3.org/2000/svg" viewBox="0 0 500 500"><g id="freepik--Floor--inject-18"><path d="M480.66,481.29c0,.14-103.28.26-230.65.26s-230.67-.12-230.67-.26S122.6,481,250,481,480.66,481.15,480.66,481.29Z" style="fill:#263238"></path></g><g id="freepik--Gears--inject-18"><path d="M86.19,61.42A48,48,0,0,1,98,56.36l2.45-11.61L120,44.47,122.83,56a47.92,47.92,0,0,1,11.89,4.73l9.95-6.47L158.75,68l-6.19,10.12a48,48,0,0,1,5.07,11.76l11.61,2.46.28,19.63L158,114.72a48.38,48.38,0,0,1-4.73,11.9l6.47,9.94L146,150.65l-10.12-6.19a48,48,0,0,1-11.76,5.06l-2.46,11.61-19.64.28-2.79-11.54a47.92,47.92,0,0,1-11.89-4.73l-10,6.47L63.34,137.92l6.19-10.12A48,48,0,0,1,64.47,116l-11.62-2.46L52.58,94l11.54-2.79a48,48,0,0,1,4.72-11.9l-6.47-9.94L76.06,55.23l10.13,6.19Z" style="fill:#FFB500;fill-rule:evenodd"></path><path d="M122.63,97.16A25.15,25.15,0,0,0,122,93a16.09,16.09,0,0,0-1.89-4.48,16.93,16.93,0,0,0-11.38-7.88,16.77,16.77,0,0,0-8.8.75,16,16,0,0,0-4.24,2.28,15.47,15.47,0,0,0-3.54,3.56,16.69,16.69,0,0,0,0,19.79,20.62,20.62,0,0,0,1.64,2,18,18,0,0,0,1.9,1.61,15.75,15.75,0,0,0,4.24,2.29,16.86,16.86,0,0,0,8.8.74,16.93,16.93,0,0,0,11.38-7.88,16.33,16.33,0,0,0,1.9-4.48,25.63,25.63,0,0,0,.62-4.12.8.8,0,0,1,0,.27c0,.22,0,.48,0,.81a7.6,7.6,0,0,1-.11,1.32,11.33,11.33,0,0,1-.32,1.77,16.08,16.08,0,0,1-1.84,4.58,17.14,17.14,0,0,1-11.55,8.16,17.29,17.29,0,0,1-9-.72A16.36,16.36,0,0,1,95.39,111a15.81,15.81,0,0,1-3.65-3.65,17.16,17.16,0,0,1,0-20.4,19.2,19.2,0,0,1,1.69-2,20.26,20.26,0,0,1,2-1.66A16,16,0,0,1,99.76,81,17.1,17.1,0,0,1,116,83.5a17,17,0,0,1,4.33,4.9A16.19,16.19,0,0,1,122.2,93a11.65,11.65,0,0,1,.32,1.78,7.42,7.42,0,0,1,.11,1.31c0,.33,0,.6,0,.81A.9.9,0,0,1,122.63,97.16Z" style="fill:#fff"></path><path d="M117.28,109.54c.1-.1,3.8,3.44,8.27,7.91s8,8.17,7.91,8.27-3.81-3.44-8.28-7.9S117.18,109.64,117.28,109.54Z" style="fill:#fff"></path><path d="M220.43,135.73a61.42,61.42,0,0,1,15.09-6.5l3.16-14.91,25.2-.35,3.58,14.81a61.54,61.54,0,0,1,15.27,6.07l12.77-8.31,18.07,17.57-7.94,13a62,62,0,0,1,6.5,15.09l14.9,3.16.36,25.2-14.81,3.58a61.93,61.93,0,0,1-6.07,15.27l8.3,12.77-17.57,18.07-13-7.94a62,62,0,0,1-15.1,6.5L266,263.71l-25.21.36-3.58-14.81a61.85,61.85,0,0,1-15.27-6.07l-12.76,8.3L191.1,233.92l7.94-13a61.62,61.62,0,0,1-6.49-15.1l-14.91-3.15-.35-25.21,14.81-3.57a61.54,61.54,0,0,1,6.07-15.27l-8.31-12.77,17.57-18.08,13,7.95Z" style="fill:#FFB500;fill-rule:evenodd"></path><path d="M243.81,215.28h.3l.86,0,3.31,0,12.37-.08-.15.15c-.05-2.12-.11-4.51-.17-7.07v-.12l.11-.05A38.06,38.06,0,0,0,271,200.8a26.72,26.72,0,0,0,4.44-5.68,19.66,19.66,0,0,0,2.44-7.23,24.05,24.05,0,0,0-3.79-15.84,28.77,28.77,0,0,0-13.79-11,23.73,23.73,0,0,0-13.24-.92,26,26,0,0,0-11.51,5.32,23.39,23.39,0,0,0-6.94,9.59c-.31.91-.7,1.78-.93,2.69s-.44,1.82-.66,2.71a28.86,28.86,0,0,0-.47,5.34,24.81,24.81,0,0,0,.63,5,23.08,23.08,0,0,0,1.63,4.48,25.77,25.77,0,0,0,5,6.91,34.14,34.14,0,0,0,10.32,7.05l.06,0v.06q-.18,2.9-.27,4.41c0,.49,0,.86-.07,1.14a2.55,2.55,0,0,1,0,.39,1.53,1.53,0,0,1,0-.36c0-.27,0-.64,0-1.12,0-1,.09-2.51.16-4.47l.06.1a33.88,33.88,0,0,1-10.47-7,25.71,25.71,0,0,1-5.1-7,23.44,23.44,0,0,1-1.68-4.55,25.79,25.79,0,0,1-.67-5.12,29.79,29.79,0,0,1,.46-5.43c.22-.91.44-1.82.66-2.75s.63-1.82.94-2.74a23.9,23.9,0,0,1,7.06-9.81A26.49,26.49,0,0,1,247,159.63a24.19,24.19,0,0,1,13.52.93,29.23,29.23,0,0,1,14,11.21,23.93,23.93,0,0,1,3.37,7.95,14.5,14.5,0,0,1,.38,2.07,13.19,13.19,0,0,1,.2,2.07c0,.69.06,1.38.07,2.06l-.19,2a19.82,19.82,0,0,1-2.52,7.39,27.21,27.21,0,0,1-4.53,5.77,38.36,38.36,0,0,1-10.74,7.26l.11-.17c0,2.56.08,5,.11,7.08v.16h-.16l-12.46-.08-3.27,0h-.84Z" style="fill:#fff"></path><path d="M260.89,220a71.66,71.66,0,0,1-8.65.27,73,73,0,0,1-8.65-.26,73,73,0,0,1,8.65-.26A71.91,71.91,0,0,1,260.89,220Z" style="fill:#fff"></path><path d="M255.29,226.5a6.66,6.66,0,0,1-3.06.36,6.74,6.74,0,0,1-3-.55,15,15,0,0,1,3.05,0A14.73,14.73,0,0,1,255.29,226.5Z" style="fill:#fff"></path><path d="M247.34,215.28a.9.9,0,0,1,0-.28v-.84c0-.78,0-1.85.05-3.22.07-2.83.16-6.86.28-11.83.06-2.5.14-5.23.21-8.17a5.37,5.37,0,0,0-.29-2.11,1.39,1.39,0,0,0-1.52-1,2,2,0,0,0-1.34,1.52,3.1,3.1,0,0,0,.28,2.2,5,5,0,0,0,3.86,2.57,5.14,5.14,0,0,0,4.5-1.8,7.68,7.68,0,0,0,1.89-4.84,4.56,4.56,0,0,0-.53-2.56,1.88,1.88,0,0,0-2.11-.9,1.9,1.9,0,0,0-1,2.07,5.23,5.23,0,0,0,1.2,2.35,9.52,9.52,0,0,0,4.17,3.22,5.42,5.42,0,0,0,2.51.3,5.07,5.07,0,0,0,2.28-.95,4,4,0,0,0,1.43-1.9,2.92,2.92,0,0,0-.13-2.25,1.94,1.94,0,0,0-1.71-1.16,2.37,2.37,0,0,0-1.79,1.07c-.83,1.23-.84,2.84-1.05,4.27-.32,2.91-.53,5.64-.72,8.13-.33,5-.6,9-.79,11.8-.1,1.37-.17,2.44-.22,3.21,0,.35-.05.62-.07.84a1.18,1.18,0,0,1,0,.28,1.23,1.23,0,0,1,0-.28c0-.22,0-.5,0-.84,0-.77.07-1.85.12-3.22.12-2.79.31-6.83.64-11.81.16-2.5.35-5.23.65-8.16.09-.73.16-1.47.29-2.23a5.46,5.46,0,0,1,.81-2.25,2.83,2.83,0,0,1,2.16-1.28,2.42,2.42,0,0,1,2.14,1.41,3.38,3.38,0,0,1,.17,2.63,4.46,4.46,0,0,1-1.59,2.14,5.55,5.55,0,0,1-2.51,1.05,5.85,5.85,0,0,1-2.75-.32,9.94,9.94,0,0,1-4.4-3.38,5.55,5.55,0,0,1-1.31-2.59,2.42,2.42,0,0,1,1.35-2.64,2.39,2.39,0,0,1,2.74,1.12,5,5,0,0,1,.6,2.85,8.2,8.2,0,0,1-2,5.16,5.62,5.62,0,0,1-4.94,2,5.48,5.48,0,0,1-4.23-2.85,3.61,3.61,0,0,1-.3-2.54,2.47,2.47,0,0,1,1.71-1.84,1.68,1.68,0,0,1,1.27.29,2.22,2.22,0,0,1,.75,1,5.75,5.75,0,0,1,.3,2.3c-.1,2.93-.19,5.66-.28,8.16-.18,5-.33,9-.44,11.83-.06,1.36-.11,2.44-.15,3.21,0,.34,0,.62,0,.84A1,1,0,0,1,247.34,215.28Z" style="fill:#fff"></path><path d="M259.37,223.23a46.55,46.55,0,0,1-7,.26,46.55,46.55,0,0,1-7-.26,48.18,48.18,0,0,1,7-.26A48.18,48.18,0,0,1,259.37,223.23Z" style="fill:#fff"></path><path d="M385.94,176a39.63,39.63,0,0,1,9.73-4.37l1.89-9.7,16.35-.49,2.47,9.57a40,40,0,0,1,10,3.78l8.2-5.51,11.9,11.21-5,8.51a40.57,40.57,0,0,1,4.37,9.73l9.7,1.9.48,16.34-9.57,2.47a40,40,0,0,1-3.78,10l5.52,8.2-11.22,11.9-8.51-5a40,40,0,0,1-9.73,4.37l-1.89,9.7-16.35.49L398,249.45a40.39,40.39,0,0,1-10-3.79l-8.19,5.52L367.91,240l5-8.51a40.32,40.32,0,0,1-4.37-9.72l-9.7-1.9-.48-16.35L368,201a39.9,39.9,0,0,1,3.78-10l-5.52-8.2L377.43,171l8.51,5Z" style="fill:#FFB500;fill-rule:evenodd"></path><path d="M429.09,227.81a4.83,4.83,0,0,1-.79.05l-2.27,0-8.37.08-27.59.08h-2.23v-.26c0-10.31.06-19.55.08-26.28,0-3.3.07-6,.09-7.9,0-.89,0-1.6,0-2.14a6,6,0,0,1,.05-.74,3.24,3.24,0,0,1,0,.74c0,.54,0,1.25.05,2.14,0,1.92.05,4.6.08,7.9,0,6.73.05,16,.08,26.28l-.26-.26h2l27.59.07,8.37.09,2.27,0A4,4,0,0,1,429.09,227.81Z" style="fill:#fff"></path><path d="M424.54,199.74a10.59,10.59,0,0,1-1.22,1.17l-3.46,3c-2.94,2.55-7,6.05-11.55,9.88l-.68.58-.18.15-.17-.16-5.13-4.77h.32l-7.54,6.22-2.19,1.75a4.76,4.76,0,0,1-.82.58,4.19,4.19,0,0,1,.72-.7l2.1-1.86,7.42-6.36.16-.14.16.14,5.15,4.75h-.34l.69-.58c4.52-3.83,8.64-7.28,11.64-9.76l3.57-2.91A10.19,10.19,0,0,1,424.54,199.74Z" style="fill:#fff"></path><path d="M424.54,208.33a13.27,13.27,0,0,1-.18-2.56c-.05-1.59-.08-3.78-.08-6.23l.26.26h-.44c-2.55,0-4.86,0-6.53-.08a14.88,14.88,0,0,1-2.71-.18,14.23,14.23,0,0,1,2.71-.19c1.67,0,4-.07,6.53-.07h.7v.26c0,2.45,0,4.64-.08,6.23A13.27,13.27,0,0,1,424.54,208.33Z" style="fill:#fff"></path><path d="M160,229.24a9.15,9.15,0,0,1-1.16-2.78,8.9,8.9,0,0,1-.66-2.94,8.87,8.87,0,0,1,1.16,2.78A8.76,8.76,0,0,1,160,229.24Z" style="fill:#263238"></path><path d="M170.64,250.64a40.64,40.64,0,0,1-6-10.38,56.77,56.77,0,0,1,3.05,5.15A53.42,53.42,0,0,1,170.64,250.64Z" style="fill:#263238"></path><path d="M186.24,268.71a39.41,39.41,0,0,1-8.38-8.53,55.79,55.79,0,0,1,4.24,4.22A55.27,55.27,0,0,1,186.24,268.71Z" style="fill:#263238"></path><path d="M206,282.1a25.6,25.6,0,0,1-5.41-2.61,24.5,24.5,0,0,1-4.93-3.42,58.53,58.53,0,0,1,5.19,3A55.4,55.4,0,0,1,206,282.1Z" style="fill:#263238"></path><path d="M228.72,289.42a37.27,37.27,0,0,1-11.62-2.82,35.44,35.44,0,0,1,5.82,1.38A35.58,35.58,0,0,1,228.72,289.42Z" style="fill:#263238"></path><path d="M252.59,289.94a25.28,25.28,0,0,1-6,.71,25.56,25.56,0,0,1-6-.18,53,53,0,0,1,6-.34A56.4,56.4,0,0,1,252.59,289.94Z" style="fill:#263238"></path><path d="M275.92,284.79a26.4,26.4,0,0,1-5.64,2,25.93,25.93,0,0,1-5.88,1.2,51.58,51.58,0,0,1,5.74-1.7A48.86,48.86,0,0,1,275.92,284.79Z" style="fill:#263238"></path><path d="M297.57,274.65A41.49,41.49,0,0,1,287,280.32a51,51,0,0,1,5.23-2.91A52.26,52.26,0,0,1,297.57,274.65Z" style="fill:#263238"></path><path d="M316.12,259.62a23.61,23.61,0,0,1-4.06,4.42,25.13,25.13,0,0,1-4.71,3.72,56.72,56.72,0,0,1,4.36-4.1C314.13,261.42,316,259.52,316.12,259.62Z" style="fill:#263238"></path><path d="M329.33,239.77a24.37,24.37,0,0,1-2.46,5.48,23.31,23.31,0,0,1-3.32,5c-.12-.09,1.29-2.36,2.86-5.25A57.82,57.82,0,0,1,329.33,239.77Z" style="fill:#263238"></path><path d="M337.53,217.3a34.54,34.54,0,0,1-1.62,5.76,34.41,34.41,0,0,1-2.12,5.61,34.22,34.22,0,0,1,1.62-5.77A33.44,33.44,0,0,1,337.53,217.3Z" style="fill:#263238"></path><path d="M345.18,194.61c.16.07-.76,2.58-1.84,5.7a34.18,34.18,0,0,1-2.21,5.57,33.53,33.53,0,0,1,1.72-5.74c.53-1.57,1.1-3,1.53-3.95A6.82,6.82,0,0,1,345.18,194.61Z" style="fill:#263238"></path><path d="M355.79,173.19a49.71,49.71,0,0,1-2.83,5.27,51.1,51.1,0,0,1-3,5.19,26.27,26.27,0,0,1,2.53-5.44A26.06,26.06,0,0,1,355.79,173.19Z" style="fill:#263238"></path><path d="M371.76,155.52c.09.12-2,1.78-4.42,4s-4.25,4.19-4.36,4.08a22,22,0,0,1,4-4.46A21.44,21.44,0,0,1,371.76,155.52Z" style="fill:#263238"></path><path d="M393.32,145.42a58.62,58.62,0,0,1-5.62,2c-3.1,1.11-5.57,2.15-5.63,2a23.89,23.89,0,0,1,5.46-2.5A24.41,24.41,0,0,1,393.32,145.42Z" style="fill:#263238"></path><path d="M417,142.78c0,.15-2.69.08-6,.2s-6,.33-6,.18a24.39,24.39,0,0,1,6-.7A23,23,0,0,1,417,142.78Z" style="fill:#263238"></path><path d="M440.1,148.67a55.5,55.5,0,0,1-5.66-1.95c-3.1-1.11-5.66-1.9-5.62-2a24.42,24.42,0,0,1,5.8,1.55A25.37,25.37,0,0,1,440.1,148.67Z" style="fill:#263238"></path><path d="M460.46,161.13c-.1.11-2.2-1.54-4.89-3.45s-4.92-3.38-4.85-3.51a25.5,25.5,0,0,1,5.15,3.08A24,24,0,0,1,460.46,161.13Z" style="fill:#263238"></path><path d="M472.47,174.4a26.18,26.18,0,0,1-3.56-4.82,13,13,0,0,1,3.56,4.82Z" style="fill:#263238"></path><path d="M32.51,88.66s.05-.31.18-.9l.6-2.65a68,68,0,0,1,3.33-9.89A74.44,74.44,0,0,1,44.89,61,82.21,82.21,0,0,1,60.15,45.33,80.9,80.9,0,0,1,83.41,32.75a85.11,85.11,0,0,1,14.36-3.47,92.43,92.43,0,0,1,15.65-.91,81.77,81.77,0,0,1,16.33,2.07,74.44,74.44,0,0,1,16.19,5.72A72.59,72.59,0,0,1,160.75,46,69.87,69.87,0,0,1,173,59.59,67.56,67.56,0,0,1,181.28,76,77.25,77.25,0,0,1,185,93.34c.11,1.46.27,2.91.34,4.35s.06,2.89.1,4.32-.08,2.87-.11,4.29-.23,2.83-.41,4.22a62.93,62.93,0,0,1-4.3,15.9,123.26,123.26,0,0,1-7.1,14q-3.86,6.57-7.46,12.74a74.76,74.76,0,0,0-8.73,24.8,109.79,109.79,0,0,0-1.42,11.44c-.27,3.63-.39,7.07-.41,10.29a113.49,113.49,0,0,0,.78,16.45,66.15,66.15,0,0,0,2.28,10.15c.37,1.14.68,2,.91,2.55.11.29.21.5.27.64a1.63,1.63,0,0,1,.08.22,23.06,23.06,0,0,1-1.35-3.38,61.44,61.44,0,0,1-2.39-10.15,112.66,112.66,0,0,1-.87-16.49c0-3.22.11-6.66.37-10.3A107.69,107.69,0,0,1,157,177.85a75,75,0,0,1,8.71-24.95l7.44-12.74a122.66,122.66,0,0,0,7.06-13.93,63.14,63.14,0,0,0,4.25-15.77c.18-1.39.27-2.79.4-4.19s.12-2.83.1-4.25-.07-2.86-.1-4.3-.23-2.88-.34-4.33a76.2,76.2,0,0,0-3.73-17.27,66.69,66.69,0,0,0-8.18-16.23,69.19,69.19,0,0,0-12.2-13.48,72.15,72.15,0,0,0-14.69-9.79,73.47,73.47,0,0,0-16.08-5.69,80.83,80.83,0,0,0-16.24-2.08,92.44,92.44,0,0,0-15.56.88,85,85,0,0,0-14.29,3.43A80.67,80.67,0,0,0,60.38,45.62a82.06,82.06,0,0,0-15.25,15.5A75.16,75.16,0,0,0,36.8,75.3a71.18,71.18,0,0,0-3.41,9.84l-.65,2.63Z" style="fill:#263238"></path></g></svg>